# xmcd CD database file
#
# Track frame offsets:
#	150
#	15260
#	32810
#	47455
#	61710
#	76135
#	91402
#	105785
#	118935
#	134547
#	155835
#	170610
#	190672
#	202402
#	217687
#	232415
#
# Disc length: 3304 seconds
#
# Revision: 2
# Processed by: cddbd v1.5PL3 Copyright (c) Steve Scherf et al.
# Submitted via: CDex 1.50beta10
#
DISCID=d20ce610
DTITLE=沢田研二 - Julie Special Disc 1
DYEAR=1986
DGENRE=Pop
TTITLE0=君をのせて
TTITLE1=許されない愛
TTITLE2=あなただけでいい
TTITLE3=死んでもいい
TTITLE4=あなたへの愛
TTITLE5=危険なふたり
TTITLE6=胸いっぱいの悲しみ
TTITLE7=魅せられた夜
TTITLE8=恋は邪魔もの
TTITLE9=追憶
TTITLE10=愛の逃亡者
TTITLE11=白い部屋
TTITLE12=巴里にひとり
TTITLE13=時の過ぎゆくままに
TTITLE14=立ちどまるなふりむくな
TTITLE15=ウィンクでさよなら
EXTD=YEAR: 1986
EXTT0=
EXTT1=
EXTT2=
EXTT3=
EXTT4=
EXTT5=
EXTT6=
EXTT7=
EXTT8=
EXTT9=
EXTT10=
EXTT11=
EXTT12=
EXTT13=
EXTT14=
EXTT15=
PLAYORDER=
